<svg xmlns="http://www.w3.org/2000/svg" width="1100" height="760" viewBox="0 0 1100 760">
<title>Clean F=3 capacity frontier</title>
<rect x="0" y="0" width="1100" height="760" rx="0" fill="#f8f9fb" stroke="none" stroke-width="1"/>
<text x="24" y="34" fill="#1c222b" font-size="24" font-family="Segoe UI, Arial, sans-serif" font-weight="bold" text-anchor="start">Figure 3. Clean F=3 capacity frontier</text>
<text x="24" y="58" fill="#6c7a89" font-size="13" font-family="Segoe UI, Arial, sans-serif" font-weight="normal" text-anchor="start">Frozen common-envelope results from results/level3_2/recovery_summary.csv.</text>
<line x1="90" y1="640" x2="990" y2="640" stroke="#1c222b" stroke-width="2"/>
<line x1="90" y1="120" x2="90" y2="640" stroke="#1c222b" stroke-width="2"/>
<line x1="90" y1="640" x2="990" y2="640" stroke="#d7dde6" stroke-width="1"/>
<text x="78" y="644" fill="#6c7a89" font-size="12" font-family="Segoe UI, Arial, sans-serif" font-weight="normal" text-anchor="end">0.00</text>
<line x1="90" y1="510" x2="990" y2="510" stroke="#d7dde6" stroke-width="1"/>
<text x="78" y="514" fill="#6c7a89" font-size="12" font-family="Segoe UI, Arial, sans-serif" font-weight="normal" text-anchor="end">0.25</text>
<line x1="90" y1="380" x2="990" y2="380" stroke="#d7dde6" stroke-width="1"/>
<text x="78" y="384" fill="#6c7a89" font-size="12" font-family="Segoe UI, Arial, sans-serif" font-weight="normal" text-anchor="end">0.50</text>
<line x1="90" y1="250" x2="990" y2="250" stroke="#d7dde6" stroke-width="1"/>
<text x="78" y="254" fill="#6c7a89" font-size="12" font-family="Segoe UI, Arial, sans-serif" font-weight="normal" text-anchor="end">0.75</text>
<line x1="90" y1="120" x2="990" y2="120" stroke="#d7dde6" stroke-width="1"/>
<text x="78" y="124" fill="#6c7a89" font-size="12" font-family="Segoe UI, Arial, sans-serif" font-weight="normal" text-anchor="end">1.00</text>
<line x1="90" y1="120" x2="90" y2="640" stroke="#d7dde6" stroke-width="1"/>
<text x="90" y="662" fill="#6c7a89" font-size="12" font-family="Segoe UI, Arial, sans-serif" font-weight="normal" text-anchor="middle">10</text>
<line x1="460.182719" y1="120" x2="460.182719" y2="640" stroke="#d7dde6" stroke-width="1"/>
<text x="460.182719" y="662" fill="#6c7a89" font-size="12" font-family="Segoe UI, Arial, sans-serif" font-weight="normal" text-anchor="middle">22</text>
<line x1="621.196144" y1="120" x2="621.196144" y2="640" stroke="#d7dde6" stroke-width="1"/>
<text x="621.196144" y="662" fill="#6c7a89" font-size="12" font-family="Segoe UI, Arial, sans-serif" font-weight="normal" text-anchor="middle">31</text>
<line x1="990" y1="120" x2="990" y2="640" stroke="#d7dde6" stroke-width="1"/>
<text x="990" y="662" fill="#6c7a89" font-size="12" font-family="Segoe UI, Arial, sans-serif" font-weight="normal" text-anchor="middle">68</text>
<circle cx="90" cy="152.5" r="5" fill="#d67924" stroke="#d67924" stroke-width="1"/>
<circle cx="460.182719" cy="522.1875" r="5" fill="#d67924" stroke="#d67924" stroke-width="1"/>
<circle cx="621.196144" cy="607.5" r="5" fill="#d67924" stroke="#d67924" stroke-width="1"/>
<circle cx="990" cy="640" r="5" fill="#d67924" stroke="#d67924" stroke-width="1"/>
<polyline points="90,152.5 460.182719,522.1875 621.196144,607.5 990,640" fill="none" stroke="#d67924" stroke-width="3"/>
<circle cx="90" cy="120" r="5" fill="#2a6dc6" stroke="#2a6dc6" stroke-width="1"/>
<circle cx="460.182719" cy="380" r="5" fill="#2a6dc6" stroke="#2a6dc6" stroke-width="1"/>
<circle cx="621.196144" cy="526.25" r="5" fill="#2a6dc6" stroke="#2a6dc6" stroke-width="1"/>
<circle cx="990" cy="640" r="5" fill="#2a6dc6" stroke="#2a6dc6" stroke-width="1"/>
<polyline points="90,120 460.182719,380 621.196144,526.25 990,640" fill="none" stroke="#2a6dc6" stroke-width="3"/>
<circle cx="90" cy="120" r="5" fill="#3b914e" stroke="#3b914e" stroke-width="1"/>
<circle cx="460.182719" cy="120" r="5" fill="#3b914e" stroke="#3b914e" stroke-width="1"/>
<circle cx="621.196144" cy="120" r="5" fill="#3b914e" stroke="#3b914e" stroke-width="1"/>
<circle cx="990" cy="120" r="5" fill="#3b914e" stroke="#3b914e" stroke-width="1"/>
<polyline points="90,120 460.182719,120 621.196144,120 990,120" fill="none" stroke="#3b914e" stroke-width="3"/>
<circle cx="740" cy="150" r="6" fill="#d67924" stroke="#d67924" stroke-width="1"/>
<text x="754" y="154" fill="#1c222b" font-size="13" font-family="Segoe UI, Arial, sans-serif" font-weight="normal" text-anchor="start">MAP D512</text>
<circle cx="740" cy="174" r="6" fill="#2a6dc6" stroke="#2a6dc6" stroke-width="1"/>
<text x="754" y="178" fill="#1c222b" font-size="13" font-family="Segoe UI, Arial, sans-serif" font-weight="normal" text-anchor="start">MAP D1024</text>
<circle cx="740" cy="198" r="6" fill="#3b914e" stroke="#3b914e" stroke-width="1"/>
<text x="754" y="202" fill="#1c222b" font-size="13" font-family="Segoe UI, Arial, sans-serif" font-weight="normal" text-anchor="start">BCF</text>
<text x="90" y="690" fill="#6c7a89" font-size="13" font-family="Segoe UI, Arial, sans-serif" font-weight="normal" text-anchor="start">X-axis uses common-envelope domain size M (log-scaled spacing only for readability).</text>
</svg>
