<svg xmlns="http://www.w3.org/2000/svg" width="1200" height="700" viewBox="0 0 1200 700">
<title>Recoverability budget map</title>
<rect x="0" y="0" width="1200" height="700" rx="0" fill="#f8f9fb" stroke="none" stroke-width="1"/>
<text x="24" y="34" fill="#1c222b" font-size="24" font-family="Segoe UI, Arial, sans-serif" font-weight="bold" text-anchor="start">Figure 1. Recoverability budget map</text>
<text x="24" y="58" fill="#6c7a89" font-size="13" font-family="Segoe UI, Arial, sans-serif" font-weight="normal" text-anchor="start">Conceptual workflow. Verification gates acceptance.</text>
<rect x="50" y="250" width="180" height="100" rx="12" fill="#dce9fa" stroke="#1c222b" stroke-width="1"/>
<text x="140" y="278" fill="#1c222b" font-size="18" font-family="Segoe UI, Arial, sans-serif" font-weight="bold" text-anchor="middle">Task and</text>
<text x="140" y="300" fill="#1c222b" font-size="18" font-family="Segoe UI, Arial, sans-serif" font-weight="bold" text-anchor="middle">risk contract</text>
<rect x="270" y="250" width="180" height="100" rx="12" fill="#dbf1f1" stroke="#1c222b" stroke-width="1"/>
<text x="360" y="278" fill="#1c222b" font-size="18" font-family="Segoe UI, Arial, sans-serif" font-weight="bold" text-anchor="middle">Recoverability</text>
<text x="360" y="300" fill="#1c222b" font-size="18" font-family="Segoe UI, Arial, sans-serif" font-weight="bold" text-anchor="middle">budget</text>
<rect x="490" y="250" width="230" height="100" rx="12" fill="#e7f4e6" stroke="#1c222b" stroke-width="1"/>
<text x="605" y="278" fill="#1c222b" font-size="18" font-family="Segoe UI, Arial, sans-serif" font-weight="bold" text-anchor="middle">Representation</text>
<text x="605" y="300" fill="#1c222b" font-size="18" font-family="Segoe UI, Arial, sans-serif" font-weight="bold" text-anchor="middle">and native decoder</text>
<rect x="770" y="250" width="190" height="100" rx="12" fill="#fff1dc" stroke="#1c222b" stroke-width="1"/>
<text x="865" y="278" fill="#1c222b" font-size="18" font-family="Segoe UI, Arial, sans-serif" font-weight="bold" text-anchor="middle">Independent</text>
<text x="865" y="300" fill="#1c222b" font-size="18" font-family="Segoe UI, Arial, sans-serif" font-weight="bold" text-anchor="middle">verifier</text>
<rect x="1010" y="110" width="150" height="90" rx="12" fill="#f5e8fb" stroke="#1c222b" stroke-width="1"/>
<text x="1085" y="138" fill="#1c222b" font-size="18" font-family="Segoe UI, Arial, sans-serif" font-weight="bold" text-anchor="middle">Accept</text>
<rect x="1010" y="250" width="150" height="90" rx="12" fill="#f9e0e0" stroke="#1c222b" stroke-width="1"/>
<text x="1085" y="278" fill="#1c222b" font-size="18" font-family="Segoe UI, Arial, sans-serif" font-weight="bold" text-anchor="middle">Fallback</text>
<rect x="1010" y="390" width="150" height="90" rx="12" fill="#eef0f4" stroke="#1c222b" stroke-width="1"/>
<text x="1085" y="418" fill="#1c222b" font-size="18" font-family="Segoe UI, Arial, sans-serif" font-weight="bold" text-anchor="middle">Abstain</text>
<line x1="230" y1="300" x2="270" y2="300" stroke="#2a6dc6" stroke-width="2"/>
<polyline points="263.071797,304 270,300 263.071797,296" fill="none" stroke="#2a6dc6" stroke-width="2"/>
<line x1="450" y1="300" x2="490" y2="300" stroke="#2a6dc6" stroke-width="2"/>
<polyline points="483.071797,304 490,300 483.071797,296" fill="none" stroke="#2a6dc6" stroke-width="2"/>
<line x1="720" y1="300" x2="770" y2="300" stroke="#2a6dc6" stroke-width="2"/>
<polyline points="763.071797,304 770,300 763.071797,296" fill="none" stroke="#2a6dc6" stroke-width="2"/>
<line x1="960" y1="275" x2="1010" y2="155" stroke="#3b914e" stroke-width="2"/>
<polyline points="1011.027614,162.933726 1010,155 1003.642999,159.856803" fill="none" stroke="#3b914e" stroke-width="2"/>
<line x1="960" y1="300" x2="1010" y2="295" stroke="#d67924" stroke-width="2"/>
<polyline points="1003.504195,299.669531 1010,295 1002.708165,291.709233" fill="none" stroke="#d67924" stroke-width="2"/>
<line x1="960" y1="325" x2="1010" y2="435" stroke="#55606e" stroke-width="2"/>
<polyline points="1003.491623,430.348008 1010,435 1010.774555,427.037584" fill="none" stroke="#55606e" stroke-width="2"/>
<text x="1015" y="225" fill="#3b914e" font-size="14" font-family="Segoe UI, Arial, sans-serif" font-weight="bold" text-anchor="start">yes</text>
<text x="975" y="298" fill="#d67924" font-size="14" font-family="Segoe UI, Arial, sans-serif" font-weight="bold" text-anchor="end">retry</text>
<text x="1015" y="370" fill="#55606e" font-size="14" font-family="Segoe UI, Arial, sans-serif" font-weight="bold" text-anchor="start">no safe answer</text>
<text x="110" y="150" fill="#1c222b" font-size="18" font-family="Segoe UI, Arial, sans-serif" font-weight="bold" text-anchor="start">Accepted results cannot bypass independent verification.</text>
<text x="110" y="520" fill="#6c7a89" font-size="17" font-family="Segoe UI, Arial, sans-serif" font-weight="normal" text-anchor="start">R1-R14 name where authority or cost is paid: dimension, precision, structure,</text>
<text x="110" y="546" fill="#6c7a89" font-size="17" font-family="Segoe UI, Arial, sans-serif" font-weight="normal" text-anchor="start">exact side information, context, compute, temporal state, fallback, or abstention.</text>
</svg>
